<svg xmlns="http://www.w3.org/2000/svg" width="1200" height="700" viewBox="0 0 1200 700" fill="none">
  <rect width="1200" height="700" fill="#111111"/>
  <rect x="40" y="40" width="1120" height="620" rx="20" fill="#1A1A1A" stroke="#3A3A3A"/>
  <rect x="80" y="100" width="260" height="520" rx="12" fill="#0E0E0E" stroke="#2F2F2F"/>
  <rect x="380" y="100" width="740" height="120" rx="12" fill="#141414" stroke="#303030"/>
  <rect x="410" y="140" width="220" height="18" rx="9" fill="#E8E8E8"/>
  <rect x="650" y="140" width="120" height="18" rx="9" fill="#888888"/>
  <rect x="790" y="140" width="120" height="18" rx="9" fill="#888888"/>
  <rect x="930" y="140" width="140" height="18" rx="9" fill="#888888"/>
  <rect x="380" y="260" width="355" height="360" rx="12" fill="#151515" stroke="#333333"/>
  <rect x="765" y="260" width="355" height="170" rx="12" fill="#151515" stroke="#333333"/>
  <rect x="765" y="450" width="355" height="170" rx="12" fill="#151515" stroke="#333333"/>
  <circle cx="530" cy="430" r="92" fill="#2A2A2A"/>
  <path d="M530 338V430L590 470" stroke="#F5F5F5" stroke-width="14" stroke-linecap="round"/>
  <rect x="96" y="130" width="180" height="14" rx="7" fill="#E8E8E8"/>
  <rect x="96" y="170" width="150" height="12" rx="6" fill="#7D7D7D"/>
  <rect x="96" y="230" width="190" height="10" rx="5" fill="#6E6E6E"/>
  <rect x="96" y="260" width="170" height="10" rx="5" fill="#6E6E6E"/>
  <rect x="96" y="290" width="200" height="10" rx="5" fill="#6E6E6E"/>
</svg>
